# xmcd CD database file
#
# Track frame offsets:
#	150
#	16578
#	34061
#	48669
#	71160
#	91565
#
# Disc length: 1478 seconds
#
# Revision: 1
# Processed by: cddbd v1.5.2PL0 Copyright (c) Steve Scherf et al.
# Submitted via: CDex 1.70beta2
#
DISCID=4005c406
DTITLE=Soul Sister Sally - Green Grass
DYEAR=2008
DGENRE=Jazz
TTITLE0=Green Grass
TTITLE1=Livin' To Die
TTITLE2=How Marvelous
TTITLE3=Their Blood
TTITLE4=Breathe For Me (Cody's Song)
TTITLE5=Perfection
EXTD=YEAR: 2008
EXTT0=
EXTT1=
EXTT2=
EXTT3=
EXTT4=
EXTT5=
PLAYORDER=
